<?xml version="1.0" encoding="UTF-8"?>
<svg version="1.1" xmlns="http://www.w3.org/2000/svg" width="225" height="225">
<path d="M0 0 C74.25 0 148.5 0 225 0 C225 74.25 225 148.5 225 225 C150.75 225 76.5 225 0 225 C0 150.75 0 76.5 0 0 Z " fill="#080808" transform="translate(0,0)"/>
<path d="M0 0 C74.25 0 148.5 0 225 0 C225 49.17 225 98.34 225 149 C224.34 148.01 223.68 147.02 223 146 C219.33913001 141.15182083 216.94810274 138.62609838 210.90625 137.66796875 C208.94199884 137.4086046 206.9711343 137.20045434 205 137 C205 133.37 205 129.74 205 126 C208.6558378 124.53766488 212.2627488 123.21677946 216 122 C215.67 120.68 215.34 119.36 215 118 C211.7 118 208.4 118 205 118 C205 115.69 205 113.38 205 111 C205.78375 110.773125 206.5675 110.54625 207.375 110.3125 C210.12396846 109.25160121 210.12396846 109.25160121 211.140625 106.89453125 C214.45786819 95.72145306 211.812209 84.54330717 206.71484375 74.45703125 C196.046625 55.28989729 177.0827242 44.24249032 156.5625 38.25 C119.94377628 28.34023222 76.36893446 29.90843849 43 49 C29.34118075 57.34062891 19.09943727 69.19198634 13.82421875 84.38671875 C12.90769932 88.40463566 12.70349827 92.02509734 12.75 96.125 C12.74226562 96.81464844 12.73453125 97.50429687 12.7265625 98.21484375 C12.74189925 102.22540421 13.0540979 105.45898767 15 109 C17.52372901 110.36078035 17.52372901 110.36078035 20 111 C20 113.31 20 115.62 20 118 C16.7 118 13.4 118 10 118 C9.67 119.32 9.34 120.64 9 122 C9.886875 122.28875 10.77375 122.5775 11.6875 122.875 C14.49042733 123.82693759 17.25155423 124.90062169 20 126 C20 129.63 20 133.26 20 137 C18.30875 137.226875 16.6175 137.45375 14.875 137.6875 C9.42316758 138.68384518 6.71808939 139.90056811 3 144 C1.60180488 146.6514482 1.60180488 146.6514482 1 149 C0.67 149 0.34 149 0 149 C0 99.83 0 50.66 0 0 Z " fill="#FEFEFE" transform="translate(0,0)"/>
<path d="M0 0 C1.18296661 0.00323273 1.18296661 0.00323273 2.38983154 0.00653076 C31.04757754 0.13196505 60.18563513 5.05582337 81.3125 26.3125 C88.53359891 34.98272174 93.87427701 43.62834417 93.625 55.125 C93.62822266 55.88748047 93.63144531 56.64996094 93.63476562 57.43554688 C93.58021066 63.04478934 93.58021066 63.04478934 91.3125 65.3125 C88.90833261 65.50977304 86.61928102 65.58186179 84.21398926 65.56646729 C83.10485821 65.57114726 83.10485821 65.57114726 81.97332048 65.57592177 C79.48278484 65.58393214 76.9924908 65.57756642 74.50195312 65.57128906 C72.72167314 65.57399758 70.94139428 65.57755772 69.16111755 65.58190918 C64.31618711 65.59105204 59.47134152 65.58748114 54.62640953 65.58115101 C49.56510559 65.5761008 44.5038091 65.58077972 39.44250488 65.58392334 C30.94163707 65.58756585 22.44080396 65.58275642 13.93994141 65.57324219 C4.10037025 65.5623571 -5.73911804 65.56588247 -15.57868719 65.576895 C-24.01436496 65.58595977 -32.45001773 65.58725713 -40.8856988 65.58201766 C-45.92938248 65.57889349 -50.97302717 65.57850083 -56.01670837 65.58509064 C-60.75758192 65.59085171 -65.49834822 65.58689001 -70.23921013 65.57530212 C-71.98315693 65.57264888 -73.7271127 65.57343187 -75.47105598 65.57782745 C-77.84382386 65.58325831 -80.21624381 65.57647907 -82.58898926 65.56646729 C-83.28606098 65.57092873 -83.9831327 65.57539017 -84.7013278 65.57998681 C-89.4591998 65.5408002 -89.4591998 65.5408002 -91.6875 63.3125 C-92.96340379 52.34463471 -91.97816578 43.65400369 -85.6875 34.3125 C-85.10742188 33.44109375 -84.52734375 32.5696875 -83.9296875 31.671875 C-71.48297465 14.69435037 -49.69568521 5.26983323 -29.44262695 1.74829102 C-19.59847966 0.27830315 -9.93614991 -0.04903698 0 0 Z " fill="#FBFBFB" transform="translate(111.6875,39.6875)"/>
<path d="M0 0 C2 3 2 3 3.1875 5.4375 C5.07620079 8.10773215 5.78723034 8.47909702 8.625 9.75 C10.49609375 10.71875 10.49609375 10.71875 12 12 C12.61036092 14.24541536 12.68958439 16.3028046 12.78125 18.625 C13.28442689 24.0880634 16.04242568 27.99889958 19.75 31.875 C27.8982725 37.20271664 37.3436761 36.29160994 46.71240234 36.2746582 C48.30325051 36.27901049 49.89409658 36.28419536 51.48493958 36.29014587 C55.78874282 36.30349179 60.09245801 36.30411945 64.3962779 36.30158257 C67.9969845 36.30050982 71.59767349 36.30540402 75.1983763 36.310188 C83.69736853 36.32126804 92.19631655 36.32172912 100.6953125 36.31567383 C109.44538873 36.30963524 118.19530412 36.32194558 126.94535291 36.3432439 C134.474281 36.36089196 142.00315804 36.36685619 149.53210604 36.36360615 C154.02154392 36.36179819 158.51086706 36.36438062 163.0002861 36.37832069 C167.22422015 36.39094663 171.44790449 36.38891015 175.67183495 36.37590981 C177.21569721 36.37355478 178.75957732 36.37623991 180.30341911 36.38453293 C193.9551419 36.84155037 193.9551419 36.84155037 205.92711449 31.32420826 C209.26270202 27.72073055 211.93058179 23.91556486 212.05078125 18.8671875 C212.12806398 16.40227513 212.25733842 14.35751872 213 12 C214.90848336 10.4095972 216.84590897 9.38985832 219.0546875 8.26171875 C222.27783384 6.17120415 222.87745162 3.57812297 224 0 C224.33 0 224.66 0 225 0 C225 22.77 225 45.54 225 69 C150.75 69 76.5 69 0 69 C0 46.23 0 23.46 0 0 Z " fill="#FEFEFE" transform="translate(0,156)"/>
<path d="M0 0 C1.03936707 -0.0098568 1.03936707 -0.0098568 2.09973145 -0.01991272 C4.39754339 -0.03965523 6.69528989 -0.05131156 8.99316406 -0.0612793 C9.7781855 -0.06535482 10.56320694 -0.06943035 11.37201691 -0.07362938 C15.52860756 -0.09449614 19.68516516 -0.1087941 23.84179688 -0.11816406 C28.13034004 -0.12921805 32.41836282 -0.16360404 36.70672226 -0.20333576 C40.00792386 -0.22951544 43.30900188 -0.23785716 46.61029816 -0.24144554 C48.19071204 -0.24630959 49.77112047 -0.2579185 51.3514328 -0.27648354 C53.5680374 -0.30090072 55.78330135 -0.2999059 58 -0.29296875 C59.88957428 -0.30176811 59.88957428 -0.30176811 61.81732178 -0.31074524 C65.93887503 0.27338817 68.08392815 1.51747529 71.25878906 4.17700195 C72.63378906 7.92700195 72.63378906 7.92700195 73.25878906 11.17700195 C74.90878906 11.17700195 76.55878906 11.17700195 78.25878906 11.17700195 C78.33320963 7.30713238 78.30581092 3.90341045 77.25878906 0.17700195 C91.90576874 0.10689628 106.55272618 0.05400617 121.19983959 0.02156544 C128.00087788 0.00610173 134.80181186 -0.01497817 141.6027832 -0.04931641 C148.16446513 -0.08243066 154.72606707 -0.09984507 161.28783607 -0.10762978 C163.79290791 -0.11317847 166.29797373 -0.1240135 168.8029995 -0.14018822 C172.30816914 -0.16192334 175.81288919 -0.16496654 179.31811523 -0.16357422 C180.87610085 -0.17975296 180.87610085 -0.17975296 182.46556091 -0.19625854 C191.3519338 -0.15799146 191.3519338 -0.15799146 195.25878906 3.17700195 C196.82579349 6.3110108 197.11043467 9.80855291 196.25878906 13.17700195 C193.5792184 15.83435914 191.91641174 17.07518676 188.15190125 17.65802002 C186.99052139 17.64913757 185.82914154 17.64025513 184.63256836 17.63110352 C183.98810257 17.63168762 183.34363678 17.63227173 182.67964172 17.63287354 C180.56353635 17.6301015 178.44886502 17.59905556 176.33300781 17.56762695 C174.86042551 17.56016133 173.38783324 17.55446991 171.91523743 17.55047607 C168.050001 17.53524477 164.18537121 17.49598558 160.32037354 17.45166016 C156.37219447 17.41065277 152.42391684 17.39245346 148.47558594 17.37231445 C140.73637787 17.32948801 132.99766865 17.26126819 125.25878906 17.17700195 C125.91878906 13.54700195 126.57878906 9.91700195 127.25878906 6.17700195 C125.60878906 6.17700195 123.95878906 6.17700195 122.25878906 6.17700195 C122.00484375 6.80348633 121.75089844 7.4299707 121.48925781 8.07543945 C121.14507812 8.89270508 120.80089844 9.7099707 120.44628906 10.55200195 C120.10984375 11.36411133 119.77339844 12.1762207 119.42675781 13.01293945 C118.25878906 15.17700195 118.25878906 15.17700195 115.25878906 17.17700195 C112.96426487 17.43427086 112.96426487 17.43427086 110.21742249 17.44442749 C109.17572403 17.45295746 108.13402557 17.46148743 107.0607605 17.47027588 C105.91833893 17.46936951 104.77591736 17.46846313 103.59887695 17.4675293 C101.79369347 17.47760513 101.79369347 17.47760513 99.95204163 17.48788452 C96.65032604 17.5036435 93.34886196 17.51024044 90.04712605 17.51151609 C87.29111238 17.51341513 84.53512286 17.52077261 81.77911848 17.52786028 C75.27729375 17.5441468 68.77552442 17.54902896 62.27368164 17.54760742 C55.56561267 17.54640554 48.8578652 17.56751573 42.14987761 17.59909475 C36.39097582 17.62524012 30.63217917 17.63597548 24.87321848 17.6346966 C21.43346668 17.63418649 17.99400064 17.63989611 14.55430794 17.6610527 C10.71877582 17.68399998 6.88368535 17.67492482 3.0480957 17.6628418 C1.90769836 17.67408081 0.76730103 17.68531982 -0.40765381 17.69689941 C-1.45217209 17.68851044 -2.49669037 17.68012146 -3.57286072 17.67147827 C-4.47969573 17.67256781 -5.38653074 17.67365734 -6.3208456 17.67477989 C-9.50769389 17.01936529 -10.71230437 15.66137231 -12.74121094 13.17700195 C-13.46892326 10.43737908 -13.3209267 7.94486056 -12.74121094 5.17700195 C-8.95794639 0.25875804 -5.98686037 0.04690355 0 0 Z " fill="#F8F8F8" transform="translate(20.7412109375,143.822998046875)"/>
<path d="M0 0 C61.05 0 122.1 0 185 0 C185 9 185 9 183.25 11.9375 C178.97642113 15.8549473 175.87624907 16.25185258 170.09877014 16.26742554 C169.05762948 16.27422221 169.05762948 16.27422221 167.99545568 16.28115618 C165.6701612 16.29381437 163.34510051 16.29217893 161.01977539 16.29052734 C159.35243936 16.29651165 157.6851061 16.30331697 156.01777649 16.31088257 C151.48888165 16.32855817 146.96006237 16.33323856 142.43113637 16.33451414 C138.65121455 16.33641293 134.87131035 16.34377011 131.09139532 16.35085833 C122.17460929 16.36714527 113.25786365 16.37202695 104.34106445 16.37060547 C95.13991551 16.36940344 85.93900091 16.39051673 76.73791128 16.4220928 C68.83971745 16.44823269 60.94160028 16.45897375 53.04336351 16.45769465 C48.3253906 16.45718441 43.60762599 16.46290199 38.88969612 16.48405075 C34.45320298 16.50339507 30.01711769 16.50358386 25.58061028 16.48901749 C23.9524056 16.48692365 22.32417565 16.49166445 20.6960144 16.5037384 C18.47293301 16.51915645 16.25126408 16.50990747 14.0282135 16.49447632 C12.78437928 16.49556585 11.54054506 16.49665539 10.2590189 16.49777794 C6.37289773 15.90421729 4.77208385 14.73512493 2 12 C0 9 0 9 0 0 Z " fill="#FEFEFE" transform="translate(20,169)"/>
<path d="M0 0 C56.43 0 112.86 0 171 0 C171 10 171 10 169.125 12.125 C161.31878978 14.31073886 156.16175647 13.40647428 149.0625 9.5 C141.74298232 5.47749083 136.03846816 4.86891531 127.9375 6.6875 C125.07639392 7.91738162 125.07639392 7.91738162 122.734375 9.24609375 C117.0638239 12.31619274 112.47984093 14.5185502 106 13 C102.79027752 11.62846246 99.75343436 10.09895782 96.69921875 8.41015625 C91.09602913 5.48287484 85.2179761 5.0293891 79 6 C76.53337037 7.09627983 74.2310446 8.20976996 71.875 9.5 C66.47217427 12.41697429 62.16495654 14.72240694 56 13 C52.79856389 11.61691451 49.75101639 10.09762082 46.69921875 8.41015625 C41.09668113 5.48321547 35.21733547 5.0283041 29 6 C26.55568381 7.09733611 24.27196059 8.21108075 21.9375 9.5 C14.83944056 13.4078444 9.68021094 14.31045906 1.875 12.125 C0 10 0 10 0 0 Z " fill="#F3F3F3" transform="translate(27,112)"/>
<path d="M0 0 C3.38671875 1.53125 3.38671875 1.53125 6.6875 3.5 C14.20484422 7.63504932 20.98130296 8.42442497 29.34375 6.4453125 C32.68028543 5.30319076 35.47877272 3.70635505 38.4375 1.8125 C42.98190974 -0.49956811 46.00719321 -1.14480037 51 0 C53.3183042 1.11755573 55.5600025 2.26490758 57.8125 3.5 C65.29277029 7.56184013 71.54182908 8.58783154 79.79296875 6.1875 C83.33392896 4.84852539 86.43380081 3.38667262 89.5625 1.25 C93.44633805 -0.74171182 96.81910917 -0.88465226 101 0 C103.82650435 1.4167765 106.57017124 2.93962125 109.32250977 4.49389648 C116.33206496 8.15478785 123.30366602 7.62970005 131 7 C131 8.98 131 10.96 131 13 C75.23 13 19.46 13 -38 13 C-38 11.02 -38 9.04 -38 7 C-36.63681641 7.12181641 -36.63681641 7.12181641 -35.24609375 7.24609375 C-26.68343146 7.67642242 -20.79342357 6.7420116 -13.27709961 2.48999023 C-8.73472385 -0.01006718 -5.0728244 -0.88985768 0 0 Z " fill="#F6F6F6" transform="translate(66,124)"/>
<path d="M0 0 C10.95338087 1.26012346 20.15810998 9.98020218 27 18 C31.7248802 24.44499788 33.13027193 29.05341251 33 37 C30.525 37.495 30.525 37.495 28 38 C26.26533348 35.27409546 24.88103182 32.69974696 23.6875 29.6875 C18.72243359 17.91466213 8.61509263 12.1341314 -2 6 C-1.125 1.125 -1.125 1.125 0 0 Z " fill="#080808" transform="translate(163,58)"/>
<path d="M0 0 C1.98154285 0.03793823 3.96185364 0.15510606 5.9375 0.3125 C7.55978516 0.43044922 7.55978516 0.43044922 9.21484375 0.55078125 C12 1 12 1 14 3 C14.125 5.625 14.125 5.625 14 8 C8.87160006 9.81975482 4.82315618 7.8599099 0 6 C-0.38218767 4.34385343 -0.71395102 2.67542976 -1 1 C-0.67 0.67 -0.34 0.34 0 0 Z " fill="#0A0A0A" transform="translate(138,51)"/>
<path d="M0 0 C2.75 0.4375 2.75 0.4375 5.625 3.1875 C7.75 6.4375 7.75 6.4375 7.5625 8.8125 C6.75 10.4375 6.75 10.4375 4.5625 11.25 C1.75 11.4375 1.75 11.4375 -1.0625 9.3125 C-3.25 6.4375 -3.25 6.4375 -3.625 3.6875 C-3.12525343 0.68902059 -2.98178783 0.57979208 0 0 Z " fill="#0C0C0C" transform="translate(76.25,84.5625)"/>
<path d="M0 0 C0.3125 2.1875 0.3125 2.1875 0 5 C-2.1875 7.875 -2.1875 7.875 -5 10 C-7.8125 9.8125 -7.8125 9.8125 -10 9 C-10.75 7.3125 -10.75 7.3125 -11 5 C-7.55836461 -0.10311455 -5.95939548 -1.41143577 0 0 Z " fill="#0B0B0B" transform="translate(164,82)"/>
<path d="M0 0 C0.721875 0.103125 1.44375 0.20625 2.1875 0.3125 C3.0625 2.4375 3.0625 2.4375 3.1875 5.3125 C1.57055057 7.83032125 -0.29467875 9.69555057 -2.8125 11.3125 C-5.6875 11.1875 -5.6875 11.1875 -7.8125 10.3125 C-8.125 8.125 -8.125 8.125 -7.8125 5.3125 C-4.02871622 0.44763514 -4.02871622 0.44763514 0 0 Z " fill="#050505" transform="translate(100.8125,72.6875)"/>
<path d="M0 0 C2.1875 -0.3125 2.1875 -0.3125 5 0 C7.8125 2.1875 7.8125 2.1875 10 5 C10.3125 7.8125 10.3125 7.8125 10 10 C7.875 10.875 7.875 10.875 5 11 C2.48217875 9.38305057 0.61694943 7.51782125 -1 5 C-0.875 2.125 -0.875 2.125 0 0 Z " fill="#050505" transform="translate(130,69)"/>
<path d="M0 0 C0.721875 0.268125 1.44375 0.53625 2.1875 0.8125 C2.8515625 2.60546875 2.8515625 2.60546875 3.1875 4.8125 C1.67096905 7.34955365 -0.35550602 9.18389619 -2.8125 10.8125 C-5.6875 10.6875 -5.6875 10.6875 -7.8125 9.8125 C-8.125 7.625 -8.125 7.625 -7.8125 4.8125 C-3.95043103 -0.26336207 -3.95043103 -0.26336207 0 0 Z " fill="#060606" transform="translate(56.8125,77.1875)"/>
<path d="M0 0 C2.1875 -0.3125 2.1875 -0.3125 5 0 C7.875 2.1875 7.875 2.1875 10 5 C9.8125 7.8125 9.8125 7.8125 9 10 C7.20703125 10.6640625 7.20703125 10.6640625 5 11 C2.46294635 9.48346905 0.62860381 7.45699398 -1 5 C-0.875 2.125 -0.875 2.125 0 0 Z " fill="#040404" transform="translate(106,49)"/>
<path d="M0 0 C2.5 0.125 2.5 0.125 3.5 1.125 C3.77314815 6.86111111 3.77314815 6.86111111 3.5 9.125 C2.84 9.785 2.18 10.445 1.5 11.125 C-1.125 10.75 -1.125 10.75 -3.5 10.125 C-3.52689216 8.64593108 -3.54634621 7.16672517 -3.5625 5.6875 C-3.57410156 4.86378906 -3.58570312 4.04007813 -3.59765625 3.19140625 C-3.4527802 0.12582896 -3.07795841 0.15389792 0 0 Z " fill="#0A0A0A" transform="translate(76.5,56.875)"/>
<path d="M0 0 C1.47906892 -0.02689216 2.95827483 -0.04634621 4.4375 -0.0625 C5.26121094 -0.07410156 6.08492188 -0.08570312 6.93359375 -0.09765625 C9 0 9 0 10 1 C10.04063832 2.66617115 10.042721 4.33388095 10 6 C6.98675805 7.50662097 4.31713623 7.17770373 1 7 C0.34 6.34 -0.32 5.68 -1 5 C-0.625 2.375 -0.625 2.375 0 0 Z " fill="#070707" transform="translate(118,89)"/>
</svg>
